<svg xmlns="http://www.w3.org/2000/svg" xmlns:xlink="http://www.w3.org/1999/xlink" version="1.1" x="0px" y="0px" viewBox="0 0 68 85" style="enable-background:new 0 0 68 68;" xml:space="preserve" height="100px" width="100px" fill="black">
  <g>
    <g>
      <g><path d="M56.5,18.9H42.8c-3,0-5.5-2.5-5.5-5.5V2c0-0.3,0.2-0.5,0.5-0.5s0.5,0.2,0.5,0.5v11.4c0,2.5,2,4.5,4.5,4.5h13.7     c2.5,0,4.5-2,4.5-4.5V2c0-0.3,0.2-0.5,0.5-0.5S62,1.7,62,2v11.4C62,16.5,59.5,18.9,56.5,18.9z"/></g>
      <g><path d="M43.3,18.9c-0.3,0-0.5-0.2-0.5-0.5V2c0-0.3,0.2-0.5,0.5-0.5s0.5,0.2,0.5,0.5v16.4C43.8,18.7,43.6,18.9,43.3,18.9z"/></g>
      <g><path d="M49.6,34.2c-0.3,0-0.5-0.2-0.5-0.5V2c0-0.3,0.2-0.5,0.5-0.5s0.5,0.2,0.5,0.5v31.7C50.1,34,49.9,34.2,49.6,34.2z"/></g>
      <g><path d="M56,18.9c-0.3,0-0.5-0.2-0.5-0.5V2c0-0.3,0.2-0.5,0.5-0.5s0.5,0.2,0.5,0.5v16.4C56.5,18.7,56.2,18.9,56,18.9z"/></g>
      <g><path d="M49.6,66.2c-1.7,0-3.2-1.4-3.2-3.2V36.4c0-1.7,1.4-3.2,3.2-3.2s3.2,1.4,3.2,3.2V63C52.8,64.7,51.4,66.2,49.6,66.2z      M49.6,34.2c-1.2,0-2.2,1-2.2,2.2V63c0,1.2,1,2.2,2.2,2.2c1.2,0,2.2-1,2.2-2.2V36.4C51.8,35.2,50.8,34.2,49.6,34.2z"/></g>
      <g><path d="M52.3,39H47c-0.3,0-0.5-0.2-0.5-0.5S46.7,38,47,38h5.3c0.3,0,0.5,0.2,0.5,0.5S52.6,39,52.3,39z"/></g>
      <g><path d="M52.3,61.4H47c-0.3,0-0.5-0.2-0.5-0.5s0.2-0.5,0.5-0.5h5.3c0.3,0,0.5,0.2,0.5,0.5S52.6,61.4,52.3,61.4z"/></g>
    </g>
    <g><path
      d="M17.4,12c-2.5,0-5.6-0.5-7-1.9C8.9,8.6,10,3,10.3,1.9c0-0.2,0.3-0.4,0.5-0.4H24c0.2,0,0.4,0.2,0.5,0.4    c0.2,1.1,1.4,6.7-0.1,8.2C23,11.5,19.8,12,17.4,12z M11.2,2.5c-0.5,2.5-0.8,6.1-0.1,6.9c1,1,3.4,1.6,6.3,1.6    c2.8,0,5.3-0.6,6.3-1.6c0.8-0.8,0.4-4.4-0.1-6.9H11.2z"/></g>
    <g><path
      d="M17.4,66.5C17.4,66.5,17.3,66.5,17.4,66.5c0,0-0.1,0-0.1,0C10.7,65.4,6,59.8,6,53.2V46c0-0.2,0.1-0.4,0.3-0.5l8.7-3.1    c0.3-0.1,0.5,0,0.6,0.3c0.1,0.3,0,0.5-0.3,0.6l-8.3,3v6.8c0,6.1,4.4,11.3,10.4,12.3c6-1,10.4-6.2,10.4-12.3v-6.8l-8.3-3    c-0.3-0.1-0.4-0.4-0.3-0.6c0.1-0.3,0.4-0.4,0.6-0.3l8.7,3.1c0.2,0.1,0.3,0.3,0.3,0.5v7.1c0,6.6-4.7,12.2-11.2,13.3    C17.5,66.5,17.4,66.5,17.4,66.5z"/></g>
    <g><path
      d="M17.4,54.9c-0.2,0-0.4-0.1-0.5-0.4l-2.2-7.2c0,0,0-0.1,0-0.1V11.4c0-0.3,0.2-0.5,0.5-0.5s0.5,0.2,0.5,0.5v35.8l1.7,5.6    l1.7-5.6V11.4c0-0.3,0.2-0.5,0.5-0.5s0.5,0.2,0.5,0.5v35.8c0,0,0,0.1,0,0.1l-2.2,7.2C17.8,54.8,17.6,54.9,17.4,54.9L17.4,54.9z"/></g>
  </g>

</svg>