<svg xmlns="http://www.w3.org/2000/svg" xmlns:xlink="http://www.w3.org/1999/xlink" version="1.1" x="0px" y="0px" viewBox="0 0 100 125" enable-background="new 0 0 100 100" xml:space="preserve" height="100px" width="100px" fill="darkgreen">
  <g><path
    fill="#000000"
    d="M16.146,26.533c-1.292-1.096-3.15-1.861-5.409-1.861H6.716L5,24.183v1.145c0,3.128,3.117,6.209,6.247,6.209   h4.05v0.694c-1.146,0.251-3.164,1.129-4.374,2.5c-1.451,1.644-1.984,3.833-1.713,6.007l4.668,37.04   c0.192,1.534,1.574,2.958,3.119,2.958h0.031c1.546,0,2.854-1.424,3.047-2.958l4.596-36.906c0.272-2.175-0.689-4.431-2.14-6.074   c-1.211-1.371-2.658-2.315-4.946-2.567v-1.818v-2.573c0-0.189,0.582,0.266,0.602,0.266h4.593c3.13,0,5.103-3.367,5.103-6.542   v-0.322h-4.595C19.884,21.241,17.017,23.403,16.146,26.533z M11.247,29.25c-1.475,0-2.731-1.145-3.196-2.287h2.686   c0.985,0,3.791,0,4.782,2.287H11.247z M21.103,36.647c1.016,1.15,1.49,2.55,1.299,4.074l-1.25,10.267h-4.709v2.287h4.424   l-1.86,14.874h-2.564v2.288h2.279l-0.916,7.324c-0.05,0.392-0.383,0.684-0.777,0.684h-0.031c-0.394,0-0.727-0.292-0.777-0.684   l-2.059-16.478h2.281v-2.287h-2.567l-1.859-14.874h6.713v-2.288H11.73l-0.104-1.114c-0.191-1.524,0.283-2.924,1.299-4.074   c1.015-1.151,2.478-1.678,4.013-1.678h0.15C18.623,34.97,20.086,35.497,21.103,36.647z M22.78,25.816h-3.761   c0.922-1.145,2.492-2.287,4.27-2.287h2.695C25.526,24.672,24.262,25.816,22.78,25.816z"/><path
    fill="#000000"
    d="M46.188,63.828v4.548l7.842-4.03c2.014-1.073,3.599-3.694,3.599-6.676v-4.55l-7.845,4.032   C47.773,58.225,46.188,60.845,46.188,63.828z M50.862,59.171l4.479-2.236v0.735c0,2.082-1.147,3.997-2.386,4.655l-4.479,2.237   v-0.734C48.477,61.745,49.625,59.83,50.862,59.171z"/><path
    fill="#000000"
    d="M41.446,57.152l-7.845-4.032v4.55c0,2.981,1.586,5.603,3.599,6.676l7.843,4.03v-4.548   C45.043,60.845,43.458,58.225,41.446,57.152z M42.756,64.562l-4.479-2.237c-1.237-0.658-2.386-2.573-2.386-4.655v-0.735   l4.478,2.236c1.236,0.659,2.387,2.574,2.387,4.657V64.562z"/><path
    fill="#000000"
    d="M46.188,75.269v4.549l7.842-4.031c2.014-1.072,3.599-3.692,3.599-6.676v-4.548l-7.845,4.03   C47.773,69.665,46.188,72.287,46.188,75.269z M50.862,70.613l4.479-2.237v0.734c0,2.082-1.147,3.998-2.386,4.657l-4.479,2.235   v-0.734C48.477,73.187,49.625,71.271,50.862,70.613z"/><path
    fill="#000000"
    d="M41.446,68.593l-7.845-4.03v4.548c0,2.983,1.586,5.604,3.599,6.676l7.843,4.03v-4.548   C45.043,72.285,43.458,69.665,41.446,68.593z M42.756,76.003l-4.479-2.235c-1.237-0.659-2.386-2.575-2.386-4.657v-0.734   l4.478,2.235c1.236,0.66,2.387,2.575,2.387,4.657V76.003z"/><path
    fill="#000000"
    d="M46.188,52.388v4.547l7.842-4.031c2.014-1.072,3.599-3.693,3.599-6.676V41.68l-7.845,4.032   C47.773,46.784,46.188,49.404,46.188,52.388z M50.862,47.73l4.479-2.237v0.735c0,2.084-1.147,3.998-2.386,4.657l-4.479,2.237   v-0.734C48.477,50.303,49.625,48.39,50.862,47.73z"/><path
    fill="#000000"
    d="M41.446,45.71l-7.845-4.03v4.548c0,2.983,1.586,5.604,3.599,6.676l7.843,4.031v-4.547   C45.043,49.404,43.458,46.784,41.446,45.71z M42.756,53.122l-4.479-2.237c-1.237-0.66-2.386-2.575-2.386-4.657v-0.735l4.478,2.237   c1.236,0.66,2.387,2.573,2.387,4.658V53.122z"/><path
    fill="#000000"
    d="M46.188,40.945v4.55l7.842-4.032c2.014-1.072,3.599-3.692,3.599-6.675v-4.548l-7.845,4.03   C47.773,35.342,46.188,37.964,46.188,40.945z M50.862,36.29l4.479-2.237v0.735c0,2.082-1.147,3.998-2.386,4.657l-4.479,2.235   v-0.735C48.477,38.863,49.625,36.948,50.862,36.29z"/><path
    fill="#000000"
    d="M41.446,34.27l-7.845-4.03v4.548c0,2.983,1.586,5.603,3.599,6.675l7.843,4.03v-4.548   C45.043,37.962,43.458,35.342,41.446,34.27z M42.756,41.68l-4.479-2.235c-1.237-0.66-2.386-2.575-2.386-4.657v-0.735l4.478,2.235   c1.236,0.66,2.387,2.575,2.387,4.657V41.68z"/><path
    fill="#000000"
    d="M89.666,43.55v-4.204l-6.494,3.621c-1.798,0.961-2.661,3.291-2.661,5.938v4.205l6.494-3.624   C88.803,48.529,89.666,46.198,89.666,43.55z M85.929,47.467L82.8,49.295v-0.391c0-1.757,0.419-3.368,1.447-3.917l3.13-1.829v0.391   C87.377,45.309,86.958,46.918,85.929,47.467z"/><path
    fill="#000000"
    d="M48.891,23.509L45.5,19.265l-3.389,4.244c-1.817,2.276-1.817,5.844,0,8.12l3.389,4.246l3.391-4.246   C50.708,29.353,50.708,25.785,48.891,23.509z M47.103,30.202L45.5,32.208l-1.603-2.006c-1.138-1.427-1.138-3.838,0-5.264   l1.603-2.006l1.603,2.006C48.241,26.364,48.241,28.774,47.103,30.202z"/><path
    fill="#000000"
    d="M85.554,52.992c-1.312,0-2.586,0.268-3.786,0.794c-1.145,0.504-2.345,0.554-3.28,0.116   c-2.407-1.127-5.44-1.202-7.91-0.192c-3.524,1.442-6.082,5.09-6.082,9.075v1.946c0,8.239,6.451,15.293,14.442,15.713   c0.272,0.015,0.639,0.29,0.907,0.29h0.05c4.002,0,7.795-1.826,10.637-4.654c2.843-2.835,4.422-6.732,4.422-10.734   c0-1.166,0.016-1.415,0.024-1.585C94.987,63.59,95,63.396,95,62.478C95,57.267,90.763,52.992,85.554,52.992z M92.701,63.562   c-0.012,0.188-0.024,0.384-0.024,1.649c0,3.388-1.329,6.576-3.736,8.978c-2.408,2.4-5.604,3.721-8.999,3.721h-0.003   c-0.226,0-0.647-0.006-0.879-0.017c-6.778-0.359-12.278-6.14-12.278-13.162v-1.946c0-3.067,1.988-5.862,4.662-6.955   c0.888-0.364,1.916-0.549,2.864-0.549c1.069,0,2.191,0.239,3.164,0.694c1.532,0.714,3.451,0.674,5.193-0.095   c0.906-0.396,1.882-0.6,2.876-0.6c3.949,0,7.17,3.213,7.17,7.161C92.711,63.269,92.708,63.41,92.701,63.562z"/></g>
  <text x="0" y="83" fill="#000000" font-size="3px" font-weight="bold" font-family="'Helvetica Neue', Helvetica, Arial-Unicode, Arial, Sans-serif">Created by Azam Ishaq</text>
  <text x="0" y="88" fill="#000000" font-size="3px" font-weight="bold" font-family="'Helvetica Neue', Helvetica, Arial-Unicode, Arial, Sans-serif">from the Noun Project</text>
</svg>