<svg xmlns="http://www.w3.org/2000/svg" xmlns:xlink="http://www.w3.org/1999/xlink" version="1.1" x="0px" y="0px" fill="green" height="50px" width="50px" viewBox="0 0 32 40" enable-background="new 0 0 32 32" xml:space="preserve"><path d="M13.985,8.362c-0.637-1.22-1.636-2.803-3.077-4.237c1.798,0.733,3.104,2.21,3.982,3.549  c0.714-4.238-3.407-5.676-6.566-5.024C10.003,3.728,8.487,8.201,13.985,8.362z"/><path
  d="M21,18c0-2.728,2.188-4.938,4.902-4.99c-0.317-0.761-0.77-1.487-1.412-2.131c-2.171-2.088-5.544-2.179-7.928-0.428  c0.484-1.771,1.246-3.675,2.424-4.878l-1.729-1.06c-1.374,1.908-1.872,3.989-1.985,5.813C12.899,8.701,9.631,8.84,7.51,10.879  c-1.757,1.758-2.107,4.129-2.121,6.154C5.35,22.5,10.125,30.833,16,27.857c3.921,1.985,7.35-1.065,9.188-4.939  C22.814,22.527,21,20.482,21,18z M10.086,13.536c-0.66,0.66-0.986,1.813-0.998,3.522c-0.006,0.791,0.141,1.699,0.424,2.631  c0.113,0.369-0.096,0.762-0.466,0.873c-0.067,0.021-0.137,0.03-0.204,0.03c-0.3,0-0.578-0.194-0.67-0.497  c-0.322-1.063-0.49-2.117-0.484-3.047c0.016-2.096,0.475-3.569,1.406-4.502c0.273-0.272,0.717-0.273,0.99-0.001  C10.357,12.819,10.358,13.262,10.086,13.536z"/>
  <text x="0" y="47" fill="#000000" font-size="7px" font-weight="bold" font-family="'Helvetica Neue', Helvetica, Arial-Unicode, Arial, Sans-serif">Created by trang5000</text>
  <text x="0" y="52" fill="#000000" font-size="7px" font-weight="bold" font-family="'Helvetica Neue', Helvetica, Arial-Unicode, Arial, Sans-serif">from the Noun Project</text>
</svg>