<svg xmlns="http://www.w3.org/2000/svg" data-name="Layer 1" viewBox="0 0 100 125" x="0px" y="0px" width="100px" height="100px" fill="black">
  <title>Markerboard</title><path
    d="M87.18,58.06c-4.46-1.87-8.93-4.18-13.53-5.67,3.9-2,7.85-3.92,11.89-5.57a1.38,1.38,0,0,0,.33-2.48c-3.35-2-7.9-4.43-10.82-6l4.66-2.84a1.27,1.27,0,0,0-.3-2.28C69.42,29.4,60.23,24,50.75,19.07c-2.06-1.06-2.94-.44-5,.53-4.33,2.07-8.6,4.26-12.85,6.48-4.54,2.37-9.13,4.74-13.47,7.48a1.39,1.39,0,0,0-1,2.55Q33.75,44.78,49,53.39a1.34,1.34,0,0,0,1.34,0L72.74,39.76a1.21,1.21,0,0,0,.67.84c2.92,1.57,5.82,3.19,8.73,4.79-11.65,5.19-23,11.5-34,17.77C36.91,57.84,25.65,52.57,14.81,46.59c3-1.82,5.91-3.6,8.91-5.33a1,1,0,0,0-1-1.76c-3.51,2-7,4.1-10.44,6.25a1,1,0,0,0,0,1.77c4.28,2.4,8.62,4.7,13,7a1,1,0,0,0-.3.1c-4.14,2.46-8.28,4.93-12.53,7.2a1.06,1.06,0,0,0,0,1.82q10.47,5.12,20.93,10.27L43.71,79a41.51,41.51,0,0,0,4.88,2.38c1.2.4,1.87-.17,2.91-.75l5.78-3.21q9-5,18-9.91l12.28-6.73A1.49,1.49,0,0,0,87.18,58.06ZM49.68,50.7q-14.07-8-28.14-16C29,30,37,26.17,44.87,22.32c1.23-.6,2.61-1.09,3.8-1.8.08-.05.15-.07.2-.1.24.11.61.32.84.44,4,2.07,8,4.3,12,6.45,4.79,2.58,9.64,5.19,14.66,7.33Zm-.36,27.94C38,73.19,26.6,67.91,15.21,62.6c3.61-2,7.19-4.13,10.76-6.24a1,1,0,0,0,.37-1.31c6.3,3.25,12.66,6.41,19,9.57.74.37,1.92,1.25,2.81,1.24s2-.93,2.77-1.33q7.47-4.12,15-8.11c1.7-.9,3.4-1.8,5.12-2.69a1.29,1.29,0,0,0,.6.82,73.21,73.21,0,0,0,11.7,5.16Q66.37,69.21,49.32,78.64Z"/>
  <text x="0" y="115" fill="#000000" font-size="5px" font-weight="bold" font-family="'Helvetica Neue', Helvetica, Arial-Unicode, Arial, Sans-serif">Created by Knockout Prezo</text>
  <text x="0" y="120" fill="#000000" font-size="5px" font-weight="bold" font-family="'Helvetica Neue', Helvetica, Arial-Unicode, Arial, Sans-serif">from the Noun Project</text>
</svg>