<svg xmlns="http://www.w3.org/2000/svg" xmlns:xlink="http://www.w3.org/1999/xlink" version="1.1" x="0px" y="0px" viewBox="0 0 100 125" enable-background="new 0 0 100 100" xml:space="preserve" height="100px" width="100px">
  <g><path fill="#000000" stroke="#231F20" stroke-width="2.441" stroke-miterlimit="10" d="M63.7,31.1"/><path
    fill="#000000"
    d="M38.9,44.4L38.9,44.4c-0.2,0-0.6,0-0.8-0.3c-0.1-0.2,0-0.5,0.1-0.6c0.4-0.8,1.8-2.4,4.6-3.1   c0.5-0.1,0.9-0.2,1.4-0.2c2.6,0,4.4,1.7,4.7,2.1c0.1,0.1,0.2,0.3,0.1,0.5c-0.2,0.8-5.7,1.2-5.8,1.2c-0.8,0.1-1.6,0.1-2.3,0.2   C40.1,44.3,39.3,44.4,38.9,44.4z M44.2,40.9c-0.4,0-0.8,0-1.2,0.1c-2.3,0.6-3.6,1.8-4,2.5c0.4,0,1.1-0.1,1.9-0.2   c0.7-0.1,1.6-0.2,2.4-0.2c1.8-0.1,3.9-0.5,4.8-0.7C47.4,41.9,46,40.9,44.2,40.9z"/><path fill="#000000" d="M37.7,43c0,0-0.1,0-0.1,0c-0.1-0.1-0.2-0.2-0.1-0.4c0.8-1.9,3.8-3.4,5.7-3.6c2.3-0.3,4.8,0.8,6.1,2   c0.1,0.1,0.1,0.3,0,0.4c-0.1,0.1-0.3,0.1-0.4,0c-1.2-1.1-3.6-2.1-5.7-1.8c-1.7,0.2-4.6,1.6-5.2,3.3C37.9,42.9,37.8,43,37.7,43z"/><path
    fill="#000000"
    d="M22.7,44.9c-0.5,0-0.9,0-1.4-0.1c-1.1-0.2-2.1-0.3-2.9-0.4c-1.4-0.1-1.9-0.2-1.9-0.7c0-0.6,1.7-2.7,5.4-2.5   c3.8,0.2,5,2.8,5.1,2.9l0,0.1c0,0.1,0,0.3-0.1,0.5c-0.2,0.2-0.5,0.3-0.9,0.1c-0.5-0.2-0.9-0.1-1.6,0C24,44.8,23.4,44.9,22.7,44.9z    M17.5,43.4c0.3,0,0.6,0.1,1,0.1c0.8,0.1,1.8,0.2,2.9,0.4c1.1,0.2,2.1,0.1,2.9-0.1c0.6-0.1,1.2-0.2,1.7,0c-0.5-0.7-1.7-1.8-4.1-2   C19.3,41.8,18,42.9,17.5,43.4z"/><path fill="#000000" d="M16,42.6c-0.1,0-0.1,0-0.2-0.1c-0.1-0.1-0.1-0.3,0-0.4c0.1-0.1,2.7-2.4,5.9-2.2c3.4,0.3,4.9,1.4,5.6,2.1   c0.1,0.1,0.1,0.3,0,0.4c-0.1,0.1-0.3,0.1-0.4,0c-0.5-0.5-1.9-1.6-5.2-1.9c-3-0.2-5.5,2-5.5,2C16.1,42.6,16.1,42.6,16,42.6z"/><path fill="#000000" d="M14.1,37.3C14.1,37.3,14.1,37.3,14.1,37.3c0.7-0.6,5.5-3.3,11.6-0.1c1.7,1.5-1,1.1-1.2,0.8   c-0.9-0.2-5-3.2-9.6-0.6C13.5,37.7,14.1,37.3,14.1,37.3z"/><path fill="#000000" d="M50.6,35.1c-0.1-0.3-5.5-0.8-8-0.6c-2.4,0.2-6.4,1.4-6.3,2.2c0.1,0.8,0.7,0.5,1.7,0.2c1-0.3,4.1-2.2,6.7-2   C47.4,35.1,50.7,35.4,50.6,35.1z"/><path
    fill="#000000"
    d="M31.3,58.1c-1.1,0-2.2-0.6-2.9-1.3c-0.6-0.4-0.9-0.9-1-1.5c-0.2-1,0.2-2,0.7-2.5c0.7-1,0.7-2.6,0.7-2.6   c0-0.2,0.2-0.4,0.4-0.4c0.2,0,0.4,0.2,0.4,0.4c0,0.1,0.1,1.9-0.8,3.1c-0.2,0.3-0.7,1.2-0.5,1.9c0.1,0.4,0.3,0.7,0.7,1l0.1,0.1   c0.4,0.4,2.3,2.1,4.3,0.3c0.8-0.7,1.4-0.7,1.9-0.7c0.2,0,0.4,0,0.5-0.1l0.1-0.1c0.4-0.1,0.7-0.3,0.9-0.6c0.4-0.6,0.1-1.5,0.1-1.5   c-0.1-0.2,0.1-0.4,0.3-0.5c0.2-0.1,0.4,0.1,0.5,0.3c0,0,0.3,1.2-0.2,2.1c-0.3,0.5-0.7,0.8-1.3,0.9c-0.3,0.2-0.6,0.2-0.8,0.2   c-0.4,0-0.8,0-1.4,0.6C32.9,57.8,32.1,58.1,31.3,58.1z"/><path fill="#000000" d="M28.4,56.7c0,0-0.1,0-0.1,0c-0.2-0.1-2.1-0.9-2.1-2.1c0-1.4,1.2-2.1,1.9-2.2c0.2,0,0.4,0.1,0.5,0.3   c0,0.2-0.1,0.4-0.3,0.5c-0.1,0-1.3,0.3-1.3,1.4c0,0.5,1,1.1,1.6,1.4c0.2,0.1,0.3,0.3,0.2,0.5C28.7,56.7,28.6,56.7,28.4,56.7z"/><path fill="#000000" stroke="#231F20" stroke-width="1.9435" stroke-linecap="round" stroke-miterlimit="10" d="M52.7,8.4"/><path
    fill="#000000"
    d="M68.8,84.5c-0.1,0-0.3,0-0.4-0.1c-0.1,0-0.2-0.1-0.4-0.1c-2-0.7-8-2.7-10.8-9.7c-1.9-4.6,0.3-19.1,0.4-19.8   l0.2-1.4l1,1c0,0,0.6,0.5,1.3,0.5c0.6,0,1.2-0.4,1.8-1.1c2.1-2.5,4.8-12.9,3.3-16.1c-0.3-0.6-0.6-0.7-0.9-0.7c0,0,0,0,0,0   c-0.4,0-0.7-0.3-0.7-0.7c0-0.4,0.3-0.7,0.7-0.8c1,0,1.8,0.5,2.3,1.5c1.8,3.8-1.1,14.8-3.5,17.7c-0.9,1-1.9,1.6-2.9,1.6   c-0.5,0-1-0.1-1.3-0.2c-0.5,3.5-1.8,14.3-0.3,17.9c2.6,6.3,8.1,8.2,9.9,8.9c0.4,0.1,0.5,0.2,0.7,0.3c0.3,0.2,0.4,0.7,0.2,1   C69.3,84.4,69.1,84.5,68.8,84.5z"/><path fill="#000000" d="M41.9,43.5c0,0-1.3-0.3-0.7-1.9c0.1-0.3,3.1-1.3,3.1-1.3s2,1.7,1,2.6C44.4,43.8,41.9,43.5,41.9,43.5z"/><path fill="#000000" d="M21,44.2c0,0-1.2-0.9-0.1-2.3c1.1-1.4,3.6,0.6,3.6,0.6s1,0.8-0.2,1.7C23.1,45,21,44.2,21,44.2z"/><path
    fill="#000000"
    d="M14.1,48.2c-0.2,0-0.3-0.1-0.5-0.2c-0.2-0.2-5-4.1-5-7.6c0-1.6,0.6-2.6,1.1-3.6c0.6-1.1,1.1-2.2,0.9-4   c-0.2-1.5-0.5-2.6-0.9-3.6c-0.5-1.4-0.9-2.7-0.5-4.5c0.4-1.4,1.4-2.3,2.3-3c1.1-0.9,2-1.6,2-3.4c0-3,0.7-5.2,2.2-6.5   c2.1-1.8,5.1-1.4,6.1-1.3c0.8,0.1,1.6-1,2.5-2.3c2.1-2.8,5.2-6.9,11.9-2.7c0.3,0.2,0.5,0.7,0.2,1c-0.2,0.3-0.7,0.5-1,0.2   c-5.6-3.5-7.8-0.5-9.9,2.4c-1.2,1.6-2.3,3.1-3.9,2.8c-2.2-0.3-3.8,0-4.9,0.9c-1.2,1-1.7,2.8-1.7,5.4c0,2.5-1.4,3.7-2.5,4.6   c-0.8,0.7-1.5,1.2-1.8,2.2c-0.4,1.4,0,2.3,0.4,3.6c0.4,1.1,0.8,2.2,1,3.9c0.2,2.3-0.4,3.7-1,4.9c-0.5,0.9-0.9,1.7-0.9,3   c-0.1,2.3,3.2,5.4,4.4,6.4c0.3,0.3,0.4,0.7,0.1,1C14.5,48.1,14.3,48.2,14.1,48.2z"/><path
    fill="#000000"
    d="M29.4,11.5c-0.2,0-0.4-0.1-0.5-0.2c-0.3-0.3-0.3-0.8,0-1c0.3-0.3,7.1-6.6,14.9-6.2c3.7,0.2,6.9,1.9,9.6,5   c0.3,0.3,0.2,0.8-0.1,1c-0.3,0.3-0.8,0.2-1-0.1c-2.4-2.8-5.3-4.3-8.6-4.5c-7.1-0.4-13.7,5.8-13.8,5.8   C29.8,11.4,29.6,11.5,29.4,11.5z"/><path
    fill="#000000"
    d="M33.7,79.7c-0.8,0-1.6-0.1-2.7-0.3c-6.2-0.6-12.7-10.8-13.4-11.9c-1.8-2.9-4.6-9.6-4.6-15.9l0.1-2.3   c0.3-4.5,0.5-9.8,0.2-14.4c-1.1-10.7,4.2-15.6,4.8-16.1c3.3-3.5,8.6-5.3,9.4-4.7l0.1,0.1l0.1,0.1c3.8,5.4,8.5,5.2,13.1,5   c4.3-0.1,8.3-0.3,10.2,4.7c0.8,2.6,2.3,3.8,3.8,5.1c2,1.7,3.8,3.3,2.7,7.3c-0.6,3.1,3.1,5.3,3.1,5.3c0.4,0.2,0.5,0.7,0.3,1   c-0.2,0.4-0.7,0.5-1,0.3c-0.2-0.1-4.6-2.8-3.8-7c0.9-3.2-0.3-4.3-2.2-5.9c-1.5-1.2-3.3-2.8-4.2-5.7c-1.5-3.9-4.7-3.8-8.8-3.7   c-4.4,0.2-9.9,0.3-14.1-5.3c-1.2,0.2-4.9,1.5-7.5,4.4l-0.1,0.1c-0.1,0-5.3,4.6-4.3,14.8c0.3,4.7,0,10-0.2,14.6l-0.1,2.3   c0,5.9,2.7,12.4,4.4,15.1c2.3,3.7,7.8,10.8,12.3,11.2c2.7,0.4,3.1,0.5,7.6-0.9c5.3-2,15.1-9.2,18.2-15.9c0.2-0.4,0.6-0.5,1-0.4   c0.4,0.2,0.5,0.6,0.4,1c-3.6,7.7-14.2,14.8-19.1,16.7C36.4,79.4,35,79.7,33.7,79.7z"/><path
    fill="#000000"
    d="M60.5,43.1c-0.2,0-0.4-0.1-0.6-0.3c-0.3-0.3-0.2-0.8,0.1-1c0.1,0,5.1-4.4,2.9-8.6c-2.2-4.1-1.7-5.9-1.2-8   c0.5-1.9,1-4-0.3-8.7c-1.3-5.1-7.7-7.5-15.5-5.8c-0.4,0.1-0.8-0.2-0.9-0.6c-0.1-0.4,0.2-0.8,0.6-0.9c8.6-1.9,15.7,0.9,17.3,6.8   c1.3,5,0.7,7.5,0.3,9.4c-0.5,2-0.8,3.4,1.1,6.9c2.8,5.2-3,10.2-3.2,10.4C60.9,43,60.7,43.1,60.5,43.1z"/><path
    fill="#000000"
    d="M54.5,23.2c-0.4,0-0.7-0.3-0.7-0.7c-0.1-4.4-1.4-7.6-3.9-9.5c-4.5-3.5-11.4-2-11.5-2   c-0.4,0.1-0.8-0.2-0.9-0.6C37.4,10,37.6,9.6,38,9.5c0.3-0.1,7.7-1.7,12.7,2.3c2.9,2.3,4.4,5.9,4.4,10.7   C55.2,22.8,54.9,23.2,54.5,23.2C54.5,23.2,54.5,23.2,54.5,23.2z"/><path fill="#000000" d="M18.2,97.3c-0.3,0-0.6-0.2-0.7-0.5c-0.1-0.4,0.1-0.8,0.5-0.9c4.9-1.6,8-5,9.1-10.2c0.9-4,0.2-7.5,0.2-7.5   c-0.1-0.4,0.2-0.8,0.6-0.9c0.4-0.1,0.8,0.2,0.9,0.6c0,0.2,2.6,15.3-10.4,19.5C18.3,97.3,18.2,97.3,18.2,97.3z"/><path
    fill="#000000"
    d="M92,84.6c-0.1,0-0.3,0-0.4-0.1c-5.6-3.3-5.9-6.9-6.3-12.9c-0.2-2.2-0.3-4.7-0.8-7.7c-0.7-4.4-3.3-6.9-6-9.5   c-3.8-3.6-7.6-7.3-6.2-16.4c2.3-14.1-9-16.8-9.4-16.9c-0.4-0.1-0.7-0.5-0.6-0.9c0.1-0.4,0.5-0.7,0.9-0.6c0.1,0,13.1,3.1,10.6,18.6   c-1.4,8.3,2.1,11.6,5.7,15.1c2.8,2.7,5.6,5.4,6.4,10.3c0.5,3,0.7,5.6,0.8,7.8c0.4,5.8,0.6,8.8,5.6,11.7c0.4,0.2,0.5,0.7,0.3,1   C92.5,84.5,92.2,84.6,92,84.6z"/><path
    fill="#000000"
    d="M83.8,88c-0.1,0-0.2,0-0.3-0.1c-0.8-0.4-1.7-0.7-2.5-1c-4.8-1.7-9.2-3.4-8.9-16.5c0.2-7.5-1.9-12.3-3.8-15   c-2-2.9-4-4.1-4.1-4.1c-0.4-0.2-0.5-0.7-0.3-1c0.2-0.4,0.7-0.5,1-0.3c0.4,0.2,9,5.2,8.6,20.4c-0.3,12.1,3.5,13.5,7.9,15.1   c0.8,0.3,1.7,0.6,2.6,1c0.4,0.2,0.5,0.6,0.4,1C84.4,87.9,84.1,88,83.8,88z"/><path
    fill="#000000"
    d="M80.8,74.4C80.8,74.4,80.8,74.4,80.8,74.4c-0.5,0-0.8-0.4-0.7-0.8c0.5-5-0.5-8.8-2.7-11.2   c-2.5-2.7-5.9-2.8-6-2.8c0,0,0,0,0,0c-0.4,0-0.7-0.3-0.8-0.7c0-0.4,0.3-0.7,0.7-0.8c0.2,0,4.1,0,7.1,3.2c2.5,2.7,3.6,6.9,3.1,12.4   C81.5,74.2,81.2,74.4,80.8,74.4z"/><path fill="#000000" d="M68.6,73C68.6,73,68.6,73,68.6,73c-4-0.3-7-1.8-9-4.4c-3.5-4.7-2.3-11.2-2.3-11.5c0.1-0.4,0.5-0.7,0.9-0.6   c0.4,0.1,0.7,0.5,0.6,0.9c0,0.1-1.1,6.2,2,10.3c1.7,2.2,4.3,3.5,7.8,3.8c0.4,0,0.7,0.4,0.7,0.8C69.4,72.7,69,73,68.6,73z"/><path
    fill="#000000"
    d="M24.9,63.8c0,0,2.6-0.3,7,1.1c0.4,0.2,1,0.1,1.5,0c0.3,0,3.6-1.8,8.5-1.5c0,0-2.7,4.3-8.8,4.5   C26.4,68.2,24.9,63.8,24.9,63.8z M43.5,63.1c0.2-0.4-0.1-0.2-0.5-0.5c-1.4-0.3-3.7-1.1-9.4,0.8c-0.4,0.2-1.7-0.1-1.7-0.1   c0,0-4.1-1.5-7.9-0.5c-1,0.2-0.1,3.1,4.1,6.1C30.9,70.7,38.8,71.1,43.5,63.1z"/><path fill="#000000" d="M43.8,63.1"/></g>
  <text x="0" y="115" fill="#000000" font-size="5px" font-weight="bold" font-family="'Helvetica Neue', Helvetica, Arial-Unicode, Arial, Sans-serif">Created by Jennifer Morrow</text>
  <text x="0" y="120" fill="#000000" font-size="5px" font-weight="bold" font-family="'Helvetica Neue', Helvetica, Arial-Unicode, Arial, Sans-serif">from the Noun Project</text>
</svg>