<svg xmlns="http://www.w3.org/2000/svg" xmlns:xlink="http://www.w3.org/1999/xlink" version="1.1" x="0px" y="0px" viewBox="0 0 68 85" style="enable-background:new 0 0 68 68;" xml:space="preserve" height="100px" width="100px" fill="black">
  <g>
    <g><path d="M47.9,65.9H20.1c-0.3,0-0.5-0.2-0.5-0.5V53c0-0.3,0.2-0.5,0.5-0.5s0.5,0.2,0.5,0.5v11.9h26.8V53c0-0.3,0.2-0.5,0.5-0.5    s0.5,0.2,0.5,0.5v12.4C48.4,65.7,48.2,65.9,47.9,65.9z"/></g>
    <g><path d="M45.1,47.6H22.9c-0.3,0-0.5-0.2-0.5-0.5s0.2-0.5,0.5-0.5h22.2c0.3,0,0.5,0.2,0.5,0.5S45.4,47.6,45.1,47.6z"/></g>
    <g><path
      d="M20.1,65.9c0,0-0.1,0-0.1,0l-18.1-4c-0.2-0.1-0.4-0.3-0.4-0.5V43.1c0-0.2,0.1-0.3,0.2-0.4c0.1-0.1,0.3-0.1,0.4-0.1    L17.4,46c0.3,0.1,0.4,0.3,0.4,0.6c-0.1,0.3-0.3,0.4-0.6,0.4L2.5,43.7V61l17.1,3.8V53c0-0.3,0.2-0.5,0.5-0.5s0.5,0.2,0.5,0.5v12.4    c0,0.2-0.1,0.3-0.2,0.4C20.3,65.8,20.2,65.9,20.1,65.9z"/></g>
    <g><path
      d="M47.9,65.9c-0.1,0-0.2,0-0.3-0.1c-0.1-0.1-0.2-0.2-0.2-0.4V53c0-0.3,0.2-0.5,0.5-0.5s0.5,0.2,0.5,0.5v11.8L65.5,61V43.7    L50.8,47c-0.3,0.1-0.5-0.1-0.6-0.4c-0.1-0.3,0.1-0.5,0.4-0.6l15.3-3.4c0.1,0,0.3,0,0.4,0.1c0.1,0.1,0.2,0.2,0.2,0.4v18.3    c0,0.2-0.2,0.4-0.4,0.5l-18.1,4C48,65.9,47.9,65.9,47.9,65.9z"/></g>
    <g><path d="M20.1,41.8c-0.3,0-0.5-0.2-0.5-0.5v-6.6c0-0.3,0.2-0.5,0.5-0.5s0.5,0.2,0.5,0.5v6.6C20.6,41.6,20.4,41.8,20.1,41.8z"/></g>
    <g><path d="M45.1,29.4H22.9c-0.3,0-0.5-0.2-0.5-0.5s0.2-0.5,0.5-0.5h22.2c0.3,0,0.5,0.2,0.5,0.5S45.4,29.4,45.1,29.4z"/></g>
    <g><path d="M47.9,41.8c-0.3,0-0.5-0.2-0.5-0.5v-6.6c0-0.3,0.2-0.5,0.5-0.5s0.5,0.2,0.5,0.5v6.6C48.4,41.6,48.2,41.8,47.9,41.8z"/></g>
    <g><path d="M45.1,47.6H22.9c-0.3,0-0.5-0.2-0.5-0.5s0.2-0.5,0.5-0.5h22.2c0.3,0,0.5,0.2,0.5,0.5S45.4,47.6,45.1,47.6z"/></g>
    <g><path
      d="M17.3,47c0,0-0.1,0-0.1,0L1.9,43.6c-0.2-0.1-0.4-0.3-0.4-0.5V24.9c0-0.2,0.1-0.3,0.2-0.4c0.1-0.1,0.3-0.1,0.4-0.1    l15.3,3.4c0.3,0.1,0.4,0.3,0.4,0.6c-0.1,0.3-0.3,0.4-0.6,0.4L2.5,25.5v17.2L17.4,46c0.3,0.1,0.4,0.3,0.4,0.6    C17.8,46.8,17.6,47,17.3,47z"/></g>
    <g><path d="M20.1,41.8c-0.3,0-0.5-0.2-0.5-0.5v-6.6c0-0.3,0.2-0.5,0.5-0.5s0.5,0.2,0.5,0.5v6.6C20.6,41.6,20.4,41.8,20.1,41.8z"/></g>
    <g><path
      d="M50.7,47c-0.2,0-0.4-0.2-0.5-0.4c-0.1-0.3,0.1-0.5,0.4-0.6l14.9-3.3V25.5l-14.7,3.2c-0.3,0.1-0.5-0.1-0.6-0.4    c-0.1-0.3,0.1-0.5,0.4-0.6l15.3-3.4c0.1,0,0.3,0,0.4,0.1c0.1,0.1,0.2,0.2,0.2,0.4v18.3c0,0.2-0.2,0.4-0.4,0.5L50.8,47    C50.7,47,50.7,47,50.7,47z"/></g>
    <g><path d="M47.9,41.8c-0.3,0-0.5-0.2-0.5-0.5v-6.6c0-0.3,0.2-0.5,0.5-0.5s0.5,0.2,0.5,0.5v6.6C48.4,41.6,48.2,41.8,47.9,41.8z"/></g>
    <g><path d="M45.1,29.4H22.9c-0.3,0-0.5-0.2-0.5-0.5s0.2-0.5,0.5-0.5h22.2c0.3,0,0.5,0.2,0.5,0.5S45.4,29.4,45.1,29.4z"/></g>
    <g><path d="M47.9,23.5c-0.3,0-0.5-0.2-0.5-0.5V11.1H20.6V23c0,0.3-0.2,0.5-0.5,0.5s-0.5-0.2-0.5-0.5V10.6c0-0.3,0.2-0.5,0.5-0.5h27.8    c0.3,0,0.5,0.2,0.5,0.5V23C48.4,23.3,48.2,23.5,47.9,23.5z"/></g>
    <g><path
      d="M17.3,28.8c0,0-0.1,0-0.1,0L1.9,25.4c-0.2-0.1-0.4-0.3-0.4-0.5V6.6c0-0.2,0.1-0.3,0.2-0.4C1.8,6.1,2,6.1,2.1,6.1l18.1,4    c0.2,0.1,0.4,0.3,0.4,0.5V23c0,0.3-0.2,0.5-0.5,0.5s-0.5-0.2-0.5-0.5V11L2.5,7.2v17.2l14.9,3.3c0.3,0.1,0.4,0.3,0.4,0.6    C17.8,28.6,17.6,28.8,17.3,28.8z"/></g>
    <g><path
      d="M50.7,28.8c-0.2,0-0.4-0.2-0.5-0.4c-0.1-0.3,0.1-0.5,0.4-0.6l14.9-3.3V7.2L48.4,11v12c0,0.3-0.2,0.5-0.5,0.5    s-0.5-0.2-0.5-0.5V10.6c0-0.2,0.2-0.4,0.4-0.5l18.1-4c0.1,0,0.3,0,0.4,0.1c0.1,0.1,0.2,0.2,0.2,0.4v18.3c0,0.2-0.2,0.4-0.4,0.5    l-15.3,3.4C50.7,28.8,50.7,28.8,50.7,28.8z"/></g>
    <g><path d="M47.9,11.1H20.1c-0.3,0-0.5-0.2-0.5-0.5s0.2-0.5,0.5-0.5h27.8c0.3,0,0.5,0.2,0.5,0.5S48.2,11.1,47.9,11.1z"/></g>
    <g><path d="M20.1,11.1c0,0-0.1,0-0.1,0l-18.1-4C1.6,7.1,1.5,6.8,1.5,6.5c0.1-0.3,0.3-0.4,0.6-0.4l18.1,4c0.3,0.1,0.4,0.3,0.4,0.6    C20.6,11,20.4,11.1,20.1,11.1z"/></g>
    <g><path d="M47.9,11.1c-0.2,0-0.4-0.2-0.5-0.4c-0.1-0.3,0.1-0.5,0.4-0.6l18.1-4c0.3-0.1,0.5,0.1,0.6,0.4c0.1,0.3-0.1,0.5-0.4,0.6    l-18.1,4C47.9,11.1,47.9,11.1,47.9,11.1z"/></g>
    <g><path d="M66,7.1c0,0-0.1,0-0.1,0l-18.1-4H20.2l-18.1,4C1.8,7.2,1.6,7,1.5,6.7C1.5,6.5,1.6,6.2,1.9,6.1l18.1-4c0,0,0.1,0,0.1,0    h27.8c0,0,0.1,0,0.1,0l18.1,4c0.3,0.1,0.4,0.3,0.4,0.6C66.4,7,66.2,7.1,66,7.1z"/></g>
    <g><path d="M22.9,53.5h-5.6c-0.3,0-0.5-0.2-0.5-0.5V41.3c0-0.3,0.2-0.5,0.5-0.5h5.6c0.3,0,0.5,0.2,0.5,0.5V53    C23.4,53.2,23.2,53.5,22.9,53.5z M17.8,52.5h4.6V41.8h-4.6V52.5z"/></g>
    <g><path d="M50.7,53.5h-5.6c-0.3,0-0.5-0.2-0.5-0.5V41.3c0-0.3,0.2-0.5,0.5-0.5h5.6c0.3,0,0.5,0.2,0.5,0.5V53    C51.2,53.2,50.9,53.5,50.7,53.5z M45.6,52.5h4.6V41.8h-4.6V52.5z"/></g>
    <g><path d="M22.9,35.2h-5.6c-0.3,0-0.5-0.2-0.5-0.5V23c0-0.3,0.2-0.5,0.5-0.5h5.6c0.3,0,0.5,0.2,0.5,0.5v11.7    C23.4,35,23.2,35.2,22.9,35.2z M17.8,34.2h4.6V23.5h-4.6V34.2z"/></g>
    <g><path d="M50.7,35.2h-5.6c-0.3,0-0.5-0.2-0.5-0.5V23c0-0.3,0.2-0.5,0.5-0.5h5.6c0.3,0,0.5,0.2,0.5,0.5v11.7    C51.2,35,50.9,35.2,50.7,35.2z M45.6,34.2h4.6V23.5h-4.6V34.2z"/></g>
  </g>
  <text x="0" y="83" fill="#000000" font-size="4px" font-weight="bold" font-family="'Helvetica Neue', Helvetica, Arial-Unicode, Arial, Sans-serif">Created by Azam Ishaq</text>
  <text x="0" y="88" fill="#000000" font-size="4px" font-weight="bold" font-family="'Helvetica Neue', Helvetica, Arial-Unicode, Arial, Sans-serif">from the Noun Project</text>
</svg>